<svg width="100%" height="100%" viewBox="0 0 27 20" fill="none" xmlns="http://www.w3.org/2000/svg">
<path d="M22.532 1.675C20.826 0.881926 19.0222 0.31868 17.168 0C16.9153 0.460782 16.686 0.934052 16.481 1.418C14.5106 1.11909 12.5064 1.11909 10.536 1.418C10.3276 0.933441 10.0939 0.460127 9.83602 0C7.98005 0.31877 6.17484 0.883405 4.46802 1.679C1.43693 6.04818 0.0711084 11.3586 0.618017 16.648C2.60145 18.1357 4.82726 19.269 7.19702 19.998C7.73062 19.2699 8.20259 18.4985 8.60802 17.692C7.83802 17.4008 7.09543 17.0417 6.38902 16.619C6.57502 16.482 6.75702 16.339 6.93302 16.191C8.9864 17.1727 11.2335 17.6823 13.5095 17.6823C15.7855 17.6823 18.0326 17.1727 20.086 16.191C20.264 16.338 20.446 16.482 20.63 16.619C19.9228 17.0427 19.1792 17.4025 18.408 17.694C18.8125 18.5006 19.2838 19.272 19.817 20C22.1887 19.2717 24.416 18.1376 26.4 16.648C26.9445 11.3549 25.572 6.04212 22.532 1.675ZM9.18902 13.635C8.53068 13.5895 7.91664 13.2869 7.47941 12.7926C7.04219 12.2984 6.81685 11.652 6.85202 10.993C6.81259 10.3328 7.03639 9.68385 7.4744 9.1883C7.91242 8.69274 8.52896 8.39095 9.18902 8.349C9.51658 8.3677 9.83719 8.45111 10.1323 8.59441C10.4275 8.73771 10.6913 8.93806 10.9086 9.18389C11.1259 9.42972 11.2923 9.71616 11.3983 10.0267C11.5043 10.3372 11.5477 10.6656 11.526 10.993C11.5649 11.6529 11.3409 12.3013 10.9029 12.7964C10.4649 13.2915 9.84871 13.593 9.18902 13.635ZM17.827 13.635C17.1687 13.5895 16.5546 13.2869 16.1174 12.7926C15.6802 12.2984 15.4548 11.652 15.49 10.993C15.4506 10.3328 15.6744 9.68385 16.1124 9.1883C16.5504 8.69274 17.167 8.39095 17.827 8.349C18.1545 8.36783 18.4751 8.45133 18.7702 8.59467C19.0653 8.73801 19.329 8.93836 19.5463 9.18417C19.7636 9.42997 19.93 9.71636 20.036 10.0268C20.142 10.3373 20.1855 10.6656 20.164 10.993C20.2029 11.6529 19.9788 12.3013 19.5409 12.7964C19.1029 13.2915 18.4867 13.593 17.827 13.635Z" />
</svg>
