<svg width="100%" height="100%" viewBox="0 0 24 24" fill="none" xmlns="http://www.w3.org/2000/svg">
<path d="M17.324 0H6.676C4.90541 0 3.20735 0.703362 1.95536 1.95536C0.703362 3.20735 0 4.90541 0 6.676L0 17.324C0 19.0946 0.703362 20.7927 1.95536 22.0446C3.20735 23.2966 4.90541 24 6.676 24H17.324C19.0946 24 20.7927 23.2966 22.0446 22.0446C23.2966 20.7927 24 19.0946 24 17.324V6.676C24 4.90541 23.2966 3.20735 22.0446 1.95536C20.7927 0.703362 19.0946 0 17.324 0V0ZM14.329 16.892C13.3615 17.3527 12.279 17.5161 11.2186 17.3616C10.1582 17.2071 9.16737 16.7416 8.37151 16.024C7.57565 15.3064 7.01048 14.3688 6.74747 13.33C6.48446 12.2911 6.53543 11.1976 6.89392 10.1877C7.25242 9.17785 7.90234 8.29696 8.76149 7.65646C9.62065 7.01597 10.6504 6.64464 11.7206 6.58943C12.7909 6.53423 13.8534 6.79763 14.7739 7.34632C15.6944 7.89502 16.4315 8.70436 16.892 9.672C17.1987 10.3142 17.3756 11.0106 17.4127 11.7213C17.4498 12.432 17.3464 13.143 17.1083 13.8137C16.8703 14.4844 16.5022 15.1015 16.0253 15.6297C15.5484 16.1579 14.9719 16.5869 14.329 16.892ZM19.466 5.672C19.2874 5.757 19.0877 5.78714 18.892 5.75862C18.6963 5.73009 18.5134 5.64418 18.3665 5.51174C18.2197 5.3793 18.1154 5.20628 18.0668 5.01457C18.0183 4.82285 18.0276 4.62105 18.0938 4.43466C18.1599 4.24828 18.2798 4.08569 18.4384 3.96746C18.5969 3.84923 18.7869 3.78065 18.9844 3.77041C19.1819 3.76017 19.378 3.80873 19.5479 3.90993C19.7179 4.01114 19.8539 4.16046 19.939 4.339C19.9955 4.45758 20.0281 4.58613 20.0349 4.7173C20.0417 4.84847 20.0226 4.9797 19.9786 5.10348C19.9347 5.22727 19.8668 5.34119 19.7789 5.43874C19.6909 5.53628 19.5846 5.61555 19.466 5.672Z" />
<path d="M11.9971 8.495C11.4054 8.49466 10.8234 8.64432 10.3052 8.92998C9.78712 9.21565 9.34987 9.62799 9.03435 10.1285C8.71883 10.629 8.53534 11.2013 8.50101 11.792C8.46669 12.3826 8.58266 12.9723 8.83808 13.506C9.12442 14.1033 9.57335 14.6077 10.1333 14.9615C10.6933 15.3152 11.3417 15.504 12.0041 15.506C12.5956 15.5062 13.1775 15.3566 13.6955 15.071C14.2135 14.7854 14.6507 14.3731 14.9662 13.8728C15.2817 13.3724 15.4652 12.8003 15.4996 12.2097C15.5341 11.6192 15.4183 11.0296 15.1631 10.496C14.8768 9.89864 14.4279 9.39412 13.8679 9.04035C13.3079 8.68658 12.6595 8.49791 11.9971 8.496"/>
</svg>
