<svg width="100%" height="100%" viewBox="0 0 26 23" fill="none" xmlns="http://www.w3.org/2000/svg">
<path d="M1.55255 13.2235L1.64355 13.0805L7.14355 4.48049C7.16178 4.45189 7.18741 4.42876 7.21772 4.41354C7.24803 4.39833 7.28189 4.39159 7.31571 4.39405C7.34954 4.39651 7.38207 4.40807 7.40985 4.42752C7.43764 4.44696 7.45965 4.47355 7.47355 4.50449C8.39255 6.56349 9.18555 9.12449 8.81355 10.7185C8.5606 11.5507 8.19702 12.3451 7.73255 13.0805C7.66955 13.1995 7.60055 13.3175 7.52655 13.4305C7.50941 13.4561 7.48619 13.4771 7.45897 13.4916C7.43176 13.5061 7.40138 13.5136 7.37055 13.5135H1.71355C1.6795 13.514 1.64593 13.5053 1.61643 13.4883C1.58694 13.4713 1.56263 13.4465 1.54609 13.4168C1.52956 13.387 1.52143 13.3533 1.52257 13.3192C1.5237 13.2852 1.53407 13.2521 1.55255 13.2235Z"/>
<path d="M26 14.6735V16.0085C25.9997 16.0459 25.9884 16.0824 25.9676 16.1134C25.9468 16.1445 25.9174 16.1689 25.883 16.1835C24.9418 16.5455 24.0934 17.1133 23.4 17.8455C21.858 19.9555 20.679 22.9735 18.044 22.9735H7.053C6.13307 22.9805 5.22079 22.806 4.36831 22.4602C3.51584 22.1144 2.7399 21.6039 2.08486 20.9579C1.42982 20.312 0.908523 19.5433 0.550787 18.6957C0.193051 17.8482 0.00588749 16.9384 0 16.0185V15.8945C0.000261243 15.8699 0.00535769 15.8457 0.0149975 15.8231C0.0246373 15.8005 0.0386323 15.78 0.0561829 15.7628C0.0737334 15.7457 0.0944958 15.7321 0.117285 15.7229C0.140074 15.7138 0.164444 15.7092 0.189001 15.7095H6.316C6.3445 15.7101 6.37255 15.7167 6.39838 15.7288C6.42421 15.7409 6.44725 15.7581 6.46605 15.7796C6.48485 15.801 6.49899 15.8261 6.50759 15.8533C6.51619 15.8805 6.51905 15.9091 6.516 15.9375C6.47304 16.336 6.54926 16.7383 6.735 17.0935C6.91641 17.4498 7.19317 17.7488 7.53445 17.9571C7.87574 18.1655 8.26815 18.275 8.668 18.2735H11.7V15.9455H8.7C8.66504 15.9457 8.63071 15.9362 8.60078 15.9182C8.57084 15.9001 8.54647 15.8742 8.53035 15.8431C8.51422 15.8121 8.50696 15.7773 8.50937 15.7424C8.51178 15.7075 8.52376 15.674 8.544 15.6455C8.576 15.5965 8.613 15.5455 8.652 15.4875C8.936 15.0875 9.341 14.4755 9.744 13.7755C10.0266 13.2977 10.2791 12.8027 10.5 12.2935C10.543 12.2015 10.578 12.1085 10.613 12.0165C10.672 11.8545 10.732 11.7035 10.776 11.5525C10.819 11.4245 10.854 11.2905 10.889 11.1645C10.9898 10.7186 11.0385 10.2626 11.034 9.80548C11.034 9.62048 11.025 9.42648 11.008 9.24148C10.999 9.04148 10.973 8.84148 10.947 8.63448C10.93 8.45548 10.897 8.27848 10.863 8.09348C10.82 7.82348 10.763 7.55448 10.69 7.28448L10.666 7.18448C10.614 6.99948 10.566 6.82248 10.51 6.63748C10.339 6.05648 10.142 5.48948 9.934 4.95948C9.858 4.74848 9.771 4.54648 9.685 4.34448C9.557 4.04448 9.427 3.76348 9.308 3.50148C9.247 3.38248 9.195 3.27348 9.143 3.16248C9.091 3.05148 9.024 2.91148 8.963 2.79148C8.92 2.69948 8.87 2.61448 8.835 2.52948L8.464 1.85648C8.45241 1.83595 8.44719 1.81244 8.44898 1.78893C8.45078 1.76542 8.45951 1.74298 8.47408 1.72445C8.48865 1.70592 8.5084 1.69213 8.53082 1.68483C8.55323 1.67754 8.57731 1.67707 8.6 1.68348L10.918 2.30148H10.925C10.925 2.30148 10.932 2.30148 10.934 2.30148L11.24 2.38448L11.576 2.47848L11.699 2.51248V1.15748C11.708 0.847448 11.8375 0.553129 12.0599 0.337011C12.2824 0.120894 12.5803 0 12.8905 0C13.2007 0 13.4986 0.120894 13.7211 0.337011C13.9435 0.553129 14.073 0.847448 14.082 1.15748V3.16748L14.329 3.23548C14.349 3.24181 14.3679 3.25126 14.385 3.26348C14.446 3.30848 14.532 3.37448 14.643 3.45548C14.73 3.52348 14.823 3.60648 14.936 3.69148C15.159 3.86848 15.426 4.09148 15.718 4.35848C15.796 4.42448 15.872 4.49248 15.941 4.55848C16.318 4.90348 16.741 5.30848 17.141 5.75848C17.254 5.88448 17.364 6.01148 17.477 6.14648C17.59 6.28148 17.709 6.41648 17.813 6.54648C17.95 6.72548 18.097 6.91048 18.225 7.10448C18.286 7.19648 18.355 7.28948 18.414 7.38148C18.579 7.62648 18.724 7.88148 18.862 8.13348C18.92 8.25048 18.981 8.37848 19.033 8.50448C19.1853 8.8346 19.3036 9.17938 19.386 9.53348C19.4097 9.60777 19.4264 9.6841 19.436 9.76148V9.77848C19.4594 9.88441 19.4738 9.99213 19.479 10.1005C19.5149 10.4558 19.4943 10.8146 19.418 11.1635C19.3844 11.3143 19.3416 11.4629 19.29 11.6085C19.238 11.7535 19.19 11.9085 19.119 12.0475C18.9881 12.3496 18.8323 12.6403 18.653 12.9165C18.595 13.0165 18.525 13.1275 18.453 13.2295C18.381 13.3315 18.299 13.4405 18.23 13.5405C18.13 13.6685 18.03 13.8025 17.93 13.9215C17.8393 14.0477 17.7415 14.1685 17.637 14.2835C17.492 14.4515 17.353 14.6115 17.208 14.7645C17.121 14.8645 17.028 14.9645 16.933 15.0585C16.838 15.1525 16.745 15.2525 16.658 15.3375C16.513 15.4805 16.391 15.5905 16.29 15.6825L16.052 15.8975C16.0162 15.9277 15.9709 15.9443 15.924 15.9445H14.084V18.2735H16.407C16.9236 18.2737 17.4238 18.0921 17.82 17.7605C18.3257 17.327 18.8052 16.8638 19.256 16.3735C19.2799 16.3475 19.3108 16.3291 19.345 16.3205L25.761 14.4975C25.7885 14.4899 25.8174 14.4887 25.8455 14.4939C25.8736 14.4991 25.9002 14.5106 25.9232 14.5275C25.9462 14.5445 25.965 14.5664 25.9783 14.5917C25.9917 14.617 25.9991 14.6449 26 14.6735V14.6735Z"/>
</svg>
