<svg width="100%" height="100%" viewBox="0 0 26 21" fill="none" xmlns="http://www.w3.org/2000/svg">
<path d="M23.3385 5.22847C23.3542 5.45587 23.3542 5.68426 23.3542 5.9146C23.3677 7.89942 22.9844 9.86714 22.2264 11.7035C21.4685 13.5398 20.351 15.2081 18.9389 16.6116C17.5269 18.0151 15.8484 19.1257 14.0009 19.879C12.1534 20.6323 10.1737 21.0132 8.17689 20.9996C5.27785 21.0026 2.43922 20.1761 0 18.6188C0.421177 18.6689 0.84495 18.6944 1.26913 18.6952C3.67145 18.6971 6.00467 17.8962 7.89388 16.4212C6.78074 16.4004 5.70196 16.0344 4.80838 15.3743C3.91479 14.7142 3.25108 13.7931 2.91004 12.7396C3.70957 12.8927 4.53378 12.8611 5.31912 12.6475C4.11241 12.4052 3.02712 11.7556 2.24728 10.8088C1.46743 9.86196 1.04102 8.67618 1.04036 7.45251V7.3839C1.7822 7.79466 2.61247 8.02224 3.46128 8.04748C2.33198 7.29729 1.53267 6.14759 1.226 4.83233C0.91933 3.51708 1.12835 2.1351 1.81051 0.967604C3.14968 2.60551 4.82049 3.9451 6.71442 4.89937C8.60835 5.85364 10.683 6.40125 12.8038 6.50663C12.5384 5.37024 12.6571 4.17859 13.1416 3.11603C13.6262 2.05347 14.4494 1.17922 15.4841 0.628507C16.5187 0.0777979 17.7071 -0.118673 18.8654 0.0694867C20.0237 0.257647 21.0874 0.819952 21.8918 1.66942C23.0864 1.43503 24.2319 0.999794 25.2791 0.382433C24.8819 1.61011 24.0496 2.65262 22.9371 3.31613C23.9945 3.1921 25.027 2.91057 26 2.48101C25.2843 3.54691 24.383 4.47731 23.3385 5.22847Z" />
</svg>
